{"glyphs":{"0":{"ha":872,"x_min":0,"x_max":694,"o":"m 211 975 l 483 975 q 694 685 694 706 l 694 290 q 483 0 694 269 l 211 0 q 0 290 0 267 l 0 685 q 211 975 0 708 m 303 778 q 197 619 197 632 l 197 356 q 303 197 197 343 l 390 197 q 496 356 496 343 l 496 619 q 390 778 496 632 l 303 778 z "},"1":{"ha":819,"x_min":56,"x_max":643,"o":"m 271 975 l 456 975 l 464 967 l 464 197 l 633 197 l 643 189 l 643 8 l 633 0 l 64 0 l 56 8 l 56 189 l 64 197 l 267 197 l 267 707 l 64 543 l 56 551 l 56 764 l 271 975 z "},"2":{"ha":871,"x_min":1,"x_max":696,"o":"m 213 975 l 485 975 l 696 764 l 696 567 l 296 197 l 686 197 l 696 189 l 696 8 l 686 0 l 10 0 l 1 8 l 1 193 l 497 650 l 497 681 l 406 778 l 292 778 l 203 694 l 10 694 l 1 703 l 1 764 l 213 975 z "},"3":{"ha":871,"x_min":-1,"x_max":697,"o":"m 7 975 l 688 975 l 697 967 l 697 782 l 474 558 l 697 333 l 697 144 l 551 0 l 143 0 l -1 144 l -1 272 l 7 281 l 188 281 l 196 272 l 196 224 l 222 197 l 474 197 l 499 224 l 499 254 l 200 558 l 200 563 l 411 778 l 7 778 l -1 786 l -1 967 l 7 975 z "},"4":{"ha":872,"x_min":0,"x_max":696,"o":"m 421 972 l 618 972 l 626 964 l 626 421 l 688 421 l 696 411 l 696 232 l 688 224 l 626 224 l 626 8 l 618 0 l 438 0 l 429 8 l 429 224 l 8 224 l 0 232 l 0 417 l 421 972 m 226 425 l 226 421 l 429 421 l 429 685 l 226 425 z "},"5":{"ha":871,"x_min":0,"x_max":696,"o":"m 8 972 l 629 972 l 638 964 l 638 783 l 629 775 l 197 775 l 197 647 l 504 647 l 696 468 l 696 193 l 504 0 l 189 0 l 0 193 l 0 271 l 8 281 l 183 281 l 271 197 l 425 197 l 494 271 l 494 390 l 425 464 l 8 464 l 0 474 l 0 964 l 8 972 z "},"6":{"ha":868,"x_min":-6,"x_max":690,"o":"m 344 972 l 564 972 l 322 556 l 499 556 l 690 368 l 690 193 l 499 0 l 188 0 l -6 193 l -6 360 q 344 972 0 390 m 228 374 l 192 307 l 192 271 l 265 197 l 419 197 l 493 271 l 493 285 l 433 374 l 228 374 z "},"7":{"ha":871,"x_min":0,"x_max":696,"o":"m 8 972 l 688 972 l 696 964 l 696 789 q 228 0 696 768 l 8 0 q 346 574 8 13 l 464 775 l 8 775 l 0 783 l 0 964 l 8 972 z "},"8":{"ha":872,"x_min":0,"x_max":696,"o":"m 193 972 l 504 972 l 696 779 l 696 608 l 578 486 l 696 368 l 696 193 l 504 0 l 193 0 l 0 193 l 0 368 l 118 490 l 0 608 l 0 779 l 193 972 m 197 701 l 197 688 l 297 574 l 394 574 l 499 688 l 499 701 l 425 775 l 271 775 l 197 701 m 197 285 l 197 271 l 271 197 l 425 197 l 499 271 l 499 285 l 394 404 l 297 404 l 197 285 z "},"9":{"ha":871,"x_min":-6,"x_max":690,"o":"m 340 0 l 121 0 l 363 417 l 188 417 l -6 604 l -6 779 l 188 972 l 499 972 l 690 779 l 690 613 q 340 0 685 582 m 458 599 l 493 665 l 493 701 l 419 775 l 265 775 l 192 701 l 192 688 l 265 599 l 458 599 z "}," ":{"ha":558,"x_min":0,"x_max":0,"o":""}," ":{"ha":558,"x_min":0,"x_max":0,"o":""},"$":{"ha":757,"x_min":-6,"x_max":624,"o":"m 369 139 l 369 -54 l 235 -54 l 235 139 l 3 139 l -6 147 l -6 276 l 3 285 l 426 285 l 482 340 l 482 361 l 426 418 l 140 418 l -6 558 l -6 696 l 140 838 l 235 838 l 235 1035 l 369 1035 l 369 838 l 546 838 l 554 829 l 554 704 l 546 696 l 196 696 l 140 636 l 140 619 l 196 558 l 482 558 l 624 418 l 624 285 l 482 139 l 369 139 z "},"&":{"ha":835,"x_min":0,"x_max":696,"o":"m 146 975 l 349 975 l 493 833 l 493 696 l 311 514 q 465 311 388 426 l 599 444 l 603 444 q 696 349 643 410 l 696 344 l 550 199 q 696 0 696 14 l 526 0 q 453 97 507 15 l 349 0 l 146 0 q 0 142 60 76 l 0 404 l 125 531 l 0 696 l 0 833 l 146 975 m 146 772 l 146 753 q 231 631 146 733 l 349 757 l 349 772 l 292 833 l 203 833 l 146 772 m 146 344 l 146 199 l 203 142 l 292 142 l 364 214 q 214 417 214 407 l 146 344 z "},"'":{"ha":388,"x_min":0,"x_max":203,"o":"m 99 786 l 11 786 l 0 797 l 0 964 l 11 975 l 190 975 l 203 964 l 203 797 l 143 590 l 43 590 l 99 786 z "},"(":{"ha":764,"x_min":138,"x_max":540,"o":"m 349 1044 l 540 1044 q 307 571 540 1032 l 307 413 q 540 -78 307 401 l 540 -83 l 349 -83 q 138 360 138 339 l 138 615 q 349 1044 138 636 z "},")":{"ha":763,"x_min":68,"x_max":471,"o":"m 260 1044 q 471 615 471 636 l 471 360 q 260 -83 471 339 l 68 -83 l 68 -78 q 301 413 301 401 l 301 571 q 68 1044 68 1032 l 260 1044 z "},"*":{"ha":831,"x_min":57,"x_max":638,"o":"m 281 968 l 410 968 l 418 961 l 418 785 l 590 843 l 638 710 q 465 651 638 703 l 465 643 l 567 506 l 567 494 l 461 419 l 453 419 q 347 565 369 522 l 343 565 l 246 419 l 233 419 l 128 494 l 128 506 l 225 643 l 225 651 q 57 710 63 701 q 104 843 96 835 l 272 785 l 272 961 l 281 968 z "},"+":{"ha":972,"x_min":140,"x_max":692,"o":"m 344 418 l 140 418 l 140 558 l 344 558 l 344 765 l 483 765 l 483 558 l 692 558 l 692 418 l 483 418 l 483 211 l 344 211 l 344 418 z "},",":{"ha":553,"x_min":138,"x_max":306,"o":"m 221 0 l 138 0 l 138 164 l 306 164 l 306 0 l 222 -179 l 138 -179 l 221 0 z "},"-":{"ha":696,"x_min":6,"x_max":557,"o":"m 6 415 l 6 553 l 557 553 l 557 415 l 6 415 z "},".":{"ha":553,"x_min":111,"x_max":296,"o":"m 122 179 l 285 179 l 296 168 l 296 10 l 285 0 l 122 0 l 111 10 l 111 168 l 122 179 z "},"/":{"ha":972,"x_min":42,"x_max":738,"o":"m 42 -85 l 597 1044 l 738 1044 l 182 -85 l 42 -85 z "},":":{"ha":610,"x_min":136,"x_max":340,"o":"m 147 842 l 328 842 l 340 831 l 340 658 l 328 647 l 147 647 l 136 658 l 136 831 l 147 842 m 149 329 l 328 329 l 340 318 l 340 151 l 328 140 l 149 140 l 138 151 l 138 318 l 149 329 z "},";":{"ha":415,"x_min":136,"x_max":340,"o":"m 147 842 l 328 842 l 340 831 l 340 658 l 328 647 l 147 647 l 136 658 l 136 831 l 147 842 m 236 140 l 149 140 l 138 151 l 138 318 l 149 329 l 328 329 l 340 318 l 340 151 l 281 -56 l 181 -56 l 236 140 z "},"<":{"ha":831,"x_min":0,"x_max":594,"o":"m 414 972 l 594 972 l 594 968 l 181 485 l 594 4 l 594 0 l 414 0 l 0 485 l 0 488 l 414 972 z "},"=":{"ha":974,"x_min":139,"x_max":697,"o":"m 140 254 l 140 386 l 692 386 l 692 254 l 140 254 m 139 585 l 139 721 l 697 721 l 697 585 l 139 585 z "},">":{"ha":835,"x_min":56,"x_max":650,"o":"m 236 0 l 56 0 l 56 4 l 469 488 l 56 968 l 56 972 l 236 972 l 650 488 l 650 485 l 236 0 z "},"?":{"ha":835,"x_min":0,"x_max":696,"o":"m 190 975 l 506 975 l 696 785 l 696 590 l 421 307 l 421 243 l 413 235 l 283 235 l 275 243 l 275 368 l 554 647 l 554 724 l 449 833 l 247 833 q 142 717 142 733 q 133 692 142 692 l 8 692 l 0 700 l 0 785 l 190 975 m 283 142 l 413 142 l 421 133 l 421 8 l 413 0 l 283 0 l 275 8 l 275 133 l 283 142 z "},"@":{"ha":838,"x_min":0,"x_max":699,"o":"m 210 974 l 506 974 l 699 783 l 699 283 l 690 275 l 379 275 l 275 376 l 275 594 l 379 694 l 553 694 l 553 724 l 449 832 l 271 832 l 142 703 l 142 267 l 271 142 l 690 142 l 699 133 l 699 8 l 690 0 l 210 0 l 0 210 l 0 764 l 210 974 m 421 538 l 421 436 l 436 421 l 553 421 l 553 553 l 436 553 l 421 538 z "},"A":{"ha":872,"x_min":1,"x_max":700,"o":"m 288 975 l 414 975 q 700 408 429 975 l 700 8 l 690 0 l 511 0 l 501 8 l 501 197 l 199 197 l 199 8 l 190 0 l 10 0 l 1 8 l 1 408 q 288 975 272 975 m 349 710 l 203 382 l 499 382 l 499 386 l 353 710 l 349 710 z "},"B":{"ha":868,"x_min":3,"x_max":697,"o":"m 11 975 l 508 975 l 697 782 l 697 606 q 578 483 697 597 q 697 364 697 378 l 697 189 l 508 0 l 11 0 l 3 8 l 3 175 l 11 183 l 68 183 l 68 788 l 11 788 l 3 796 l 3 967 l 11 975 m 271 788 l 271 585 l 399 585 l 499 685 l 499 703 l 425 788 l 271 788 m 271 386 l 271 183 l 425 183 l 499 272 l 499 286 l 399 386 l 271 386 z "},"C":{"ha":871,"x_min":0,"x_max":699,"o":"m 211 975 l 483 975 l 699 760 l 699 703 l 689 694 l 492 694 l 404 774 l 294 774 l 197 681 l 197 290 l 294 197 l 404 197 l 492 281 l 689 281 l 699 272 l 699 211 l 483 0 l 211 0 l 0 211 l 0 760 l 211 975 z "},"D":{"ha":969,"x_min":4,"x_max":775,"o":"m 13 979 l 564 979 q 775 688 775 710 l 775 292 q 564 0 775 269 l 13 0 l 4 8 l 4 176 l 13 185 l 75 185 l 75 790 l 13 790 l 4 799 l 4 971 l 13 979 m 274 790 l 274 185 l 471 185 q 576 357 576 344 l 576 631 l 467 790 l 274 790 z "},"E":{"ha":801,"x_min":-4,"x_max":628,"o":"m 4 979 l 619 979 l 628 971 l 628 799 l 619 790 l 194 790 l 194 586 l 549 586 l 557 578 l 557 411 l 549 401 l 194 401 l 194 185 l 619 185 l 628 176 l 628 8 l 619 0 l 4 0 l -4 8 l -4 971 l 4 979 z "},"F":{"ha":806,"x_min":-3,"x_max":629,"o":"m 6 979 l 621 979 l 629 971 l 629 799 l 621 790 l 196 790 l 196 586 l 550 586 l 558 578 l 558 411 l 550 401 l 196 401 l 196 8 l 188 0 l 6 0 l -3 8 l -3 971 l 6 979 z "},"G":{"ha":850,"x_min":0,"x_max":699,"o":"m 215 975 l 488 975 l 699 760 l 699 703 l 689 694 l 496 694 l 408 774 l 294 774 l 201 681 l 201 290 l 294 197 l 408 197 l 500 290 l 500 374 l 356 374 l 347 383 l 347 549 l 356 558 l 689 558 l 699 549 l 699 211 l 488 0 l 215 0 l 0 211 l 0 760 l 215 975 z "},"H":{"ha":857,"x_min":1,"x_max":700,"o":"m 10 975 l 190 975 l 199 967 l 199 585 l 501 585 l 501 967 l 511 975 l 690 975 l 700 967 l 700 8 l 690 0 l 511 0 l 501 8 l 501 400 l 199 400 l 199 8 l 190 0 l 10 0 l 1 8 l 1 967 l 10 975 z "},"I":{"ha":651,"x_min":28,"x_max":451,"o":"m 36 979 l 443 979 l 451 971 l 451 799 l 443 790 l 336 790 l 336 185 l 443 185 l 451 176 l 451 8 l 443 0 l 36 0 l 28 8 l 28 176 l 36 185 l 138 185 l 138 790 l 36 790 l 28 799 l 28 971 l 36 979 z "},"J":{"ha":817,"x_min":3,"x_max":658,"o":"m 274 979 l 649 979 l 658 971 l 658 799 l 649 790 l 563 790 l 563 142 l 418 0 l 144 0 l 3 142 l 3 410 l 11 419 l 193 419 l 201 410 l 201 225 l 228 199 l 338 199 l 364 225 l 364 790 l 274 790 l 265 799 l 265 971 l 274 979 z "},"K":{"ha":874,"x_min":3,"x_max":700,"o":"m 11 979 l 193 979 l 201 971 l 201 586 l 246 586 q 475 979 450 950 l 700 979 q 399 490 699 960 q 700 0 700 13 l 475 0 q 246 388 436 53 l 201 388 l 201 8 l 193 0 l 11 0 l 3 8 l 3 971 l 11 979 z "},"L":{"ha":811,"x_min":0,"x_max":644,"o":"m 8 976 l 193 976 l 203 968 l 203 185 l 635 185 l 644 175 l 644 8 l 635 0 l 8 0 l 0 8 l 0 968 l 8 976 z "},"M":{"ha":1032,"x_min":3,"x_max":839,"o":"m 11 976 l 139 976 l 421 642 l 703 976 l 829 976 l 839 968 l 839 8 l 829 0 l 650 0 l 640 8 l 640 594 l 421 339 l 417 339 q 206 594 206 585 l 201 594 l 201 8 l 192 0 l 11 0 l 3 8 l 3 968 l 11 976 z "},"N":{"ha":872,"x_min":3,"x_max":703,"o":"m 11 976 l 139 976 l 500 444 l 500 968 l 508 976 l 693 976 l 703 968 l 703 8 l 693 0 l 561 0 l 201 528 l 201 8 l 192 0 l 11 0 l 3 8 l 3 968 l 11 976 z "},"O":{"ha":858,"x_min":0,"x_max":699,"o":"m 211 975 l 488 975 l 699 760 l 699 211 l 488 0 l 211 0 l 0 211 l 0 760 l 211 975 m 197 681 l 197 290 l 294 197 l 404 197 l 500 290 l 500 681 l 404 774 l 294 774 l 197 681 z "},"P":{"ha":854,"x_min":1,"x_max":696,"o":"m 10 975 l 507 975 l 696 782 l 696 567 l 507 374 l 199 374 l 199 8 l 190 0 l 10 0 l 1 8 l 1 967 l 10 975 m 199 788 l 199 557 l 424 557 l 497 646 l 497 703 l 424 788 l 199 788 z "},"Q":{"ha":857,"x_min":0,"x_max":697,"o":"m 211 974 l 482 974 l 697 758 l 697 329 l 565 197 l 693 8 l 693 0 l 517 0 l 451 96 l 364 0 l 211 0 l 0 211 l 0 758 l 211 974 m 197 681 l 197 289 l 289 197 l 351 258 l 236 413 l 240 417 l 403 417 l 451 350 l 500 408 l 500 681 l 404 772 l 294 772 l 197 681 z "},"R":{"ha":858,"x_min":-4,"x_max":693,"o":"m 4 974 l 500 974 l 693 781 l 693 565 l 504 378 q 689 0 689 13 l 478 0 q 290 372 469 0 l 193 372 l 193 8 l 185 0 l 4 0 l -4 8 l -4 965 l 4 974 m 193 786 l 193 557 l 421 557 l 496 644 l 496 701 l 421 786 l 193 786 z "},"S":{"ha":854,"x_min":-4,"x_max":689,"o":"m 185 974 l 500 974 l 689 781 l 689 701 l 681 693 l 500 693 l 417 772 l 268 772 l 193 701 l 193 658 l 268 583 l 500 583 l 689 394 l 689 189 l 500 0 l 185 0 l -4 189 l -4 272 l 4 281 l 185 281 l 268 197 l 417 197 l 492 272 l 492 311 l 417 386 l 185 386 l -4 579 l -4 781 l 185 974 z "},"T":{"ha":847,"x_min":0,"x_max":696,"o":"m 8 972 l 688 972 l 696 964 l 696 793 l 688 785 l 447 785 l 447 8 l 438 0 l 258 0 l 250 8 l 250 785 l 8 785 l 0 793 l 0 964 l 8 972 z "},"U":{"ha":853,"x_min":8,"x_max":704,"o":"m 17 972 l 201 972 l 210 964 l 210 289 l 301 197 l 415 197 l 507 289 l 507 964 l 517 972 l 696 972 l 704 964 l 704 210 l 494 0 l 224 0 l 8 210 l 8 964 l 17 972 z "},"V":{"ha":847,"x_min":-6,"x_max":690,"o":"m 3 972 l 183 972 l 192 964 l 192 608 q 344 275 199 572 q 489 608 469 553 l 489 964 l 499 972 l 682 972 l 690 964 l 690 565 q 406 0 568 300 l 275 0 q -6 561 264 0 l -6 964 l 3 972 z "},"W":{"ha":990,"x_min":0,"x_max":838,"o":"m 10 974 l 188 974 l 197 964 l 197 461 l 239 325 l 243 325 l 344 608 l 344 715 l 356 725 l 482 725 l 492 715 l 492 608 l 593 325 l 599 325 l 639 461 l 639 964 l 650 974 l 828 974 l 838 964 l 838 432 q 690 0 708 0 l 564 0 q 421 310 547 4 l 417 310 q 274 0 290 4 l 147 0 q 46 289 129 0 q 0 442 0 385 l 0 964 l 10 974 z "},"X":{"ha":854,"x_min":-3,"x_max":697,"o":"m 210 974 q 347 675 228 969 l 353 675 q 485 974 465 969 l 688 974 l 693 969 l 697 969 l 458 482 l 697 6 l 693 0 l 485 0 q 353 300 465 6 l 347 300 q 210 0 228 4 l 7 0 l 3 6 l -3 6 l 236 488 l -3 969 l 3 974 l 210 974 z "},"Y":{"ha":838,"x_min":0,"x_max":701,"o":"m 203 976 q 321 682 225 958 q 351 600 332 669 l 356 600 q 499 976 478 944 l 692 976 l 697 971 l 701 971 l 453 413 l 453 10 l 443 0 l 260 0 l 249 10 l 249 413 l 0 971 l 6 976 l 203 976 z "},"Z":{"ha":854,"x_min":1,"x_max":703,"o":"m 11 976 l 693 976 l 703 967 l 703 850 q 281 208 701 817 l 281 199 l 693 199 l 703 189 l 703 10 l 693 0 l 11 0 l 1 10 l 1 128 q 317 610 1 150 l 424 774 l 424 778 l 11 778 l 1 789 l 1 967 l 11 976 z "},"[":{"ha":418,"x_min":0,"x_max":561,"o":"m 7 1251 l 554 1251 l 561 1244 l 561 1117 l 554 1110 l 142 1110 l 142 -136 l 554 -136 l 561 -143 l 561 -271 l 554 -279 l 7 -279 l 0 -271 l 0 1244 l 7 1251 z "},"\\":{"ha":967,"x_min":42,"x_max":738,"o":"m 597 -85 l 42 1044 l 182 1044 l 738 -85 l 597 -85 z "},"]":{"ha":469,"x_min":-272,"x_max":289,"o":"m 282 -285 l -264 -285 l -272 -276 l -272 -149 l -264 -142 l 147 -142 l 147 1104 l -264 1104 l -272 1111 l -272 1239 l -264 1246 l 282 1246 l 289 1239 l 289 -276 l 282 -285 z "},"^":{"ha":826,"x_min":44,"x_max":608,"o":"m 324 972 l 326 972 q 608 693 447 860 l 608 690 l 532 614 l 529 614 l 324 813 l 124 614 l 121 614 l 44 690 l 44 693 l 324 972 z "},"_":{"ha":893,"x_min":6,"x_max":896,"o":"m 6 -228 l 6 -117 l 896 -117 l 896 -228 l 6 -228 z "},"`":{"ha":617,"x_min":1,"x_max":417,"o":"m 417 975 l 417 796 l 1 796 l 1 975 l 417 975 z "},"a":{"ha":847,"x_min":0,"x_max":692,"o":"m 149 696 l 486 696 l 626 551 l 626 149 l 692 0 l 482 0 q 442 69 450 40 l 368 0 l 144 0 q 0 140 89 46 l 0 276 l 144 421 l 429 421 l 429 468 l 376 525 l 149 525 l 140 535 l 140 688 l 149 696 m 158 215 l 158 206 l 193 171 l 429 171 l 429 276 l 219 276 l 158 215 z "},"b":{"ha":854,"x_min":0,"x_max":692,"o":"m 8 972 l 189 972 l 197 964 l 197 696 l 504 696 q 692 407 672 464 l 692 289 q 504 0 672 232 l 8 0 l 0 8 l 0 964 l 8 972 m 197 513 l 197 183 l 403 183 q 494 350 494 339 l 403 513 l 197 513 z "},"c":{"ha":772,"x_min":-6,"x_max":607,"o":"m 188 696 l 599 696 l 607 688 l 607 522 l 599 513 l 283 513 q 192 346 192 358 l 283 183 l 599 183 l 607 175 l 607 8 l 599 0 l 188 0 q -6 289 -6 268 l -6 407 q 188 696 -6 428 z "},"d":{"ha":854,"x_min":0,"x_max":692,"o":"m 692 964 l 692 8 l 683 0 l 188 0 q 0 289 19 232 l 0 407 q 188 696 19 464 l 494 696 l 494 964 l 503 972 l 683 972 l 692 964 m 289 513 l 197 350 q 289 183 197 339 l 494 183 l 494 513 l 289 513 z "},"e":{"ha":853,"x_min":0,"x_max":699,"o":"m 189 697 l 506 697 l 699 482 l 699 271 l 689 261 l 185 261 l 276 171 l 618 171 l 626 163 l 626 7 l 618 0 l 189 0 l 0 210 l 0 482 q 189 697 61 561 m 185 435 l 185 417 l 513 417 l 513 435 l 417 525 l 276 525 l 185 435 z "},"f":{"ha":706,"x_min":-1,"x_max":556,"o":"m 328 974 l 547 974 l 556 965 l 556 785 l 547 776 l 415 776 l 336 689 l 336 653 l 492 653 l 500 644 l 500 490 l 492 482 l 336 482 l 336 7 l 328 0 l 143 0 l 135 7 l 135 482 l 7 482 l -1 490 l -1 644 l 7 653 l 135 653 l 135 763 l 328 974 z "},"g":{"ha":857,"x_min":-6,"x_max":693,"o":"m 188 697 l 683 697 l 693 689 l 693 -136 l 551 -278 l 143 -278 l 135 -268 l 135 -115 l 143 -106 l 442 -106 l 494 -53 l 494 0 l 188 0 q -6 289 -6 268 l -6 407 q 188 697 -6 428 m 289 514 q 196 346 196 358 l 289 182 l 494 182 l 494 514 l 289 514 z "},"h":{"ha":838,"x_min":0,"x_max":669,"o":"m 8 974 l 189 974 l 197 965 l 197 697 l 490 697 q 669 450 669 471 l 669 8 l 661 0 l 481 0 l 472 8 l 472 388 l 403 482 l 394 500 l 197 500 l 197 8 l 189 0 l 8 0 l 0 8 l 0 965 l 8 974 z "},"i":{"ha":569,"x_min":38,"x_max":432,"o":"m 144 974 l 325 974 l 333 965 l 333 838 l 325 829 l 144 829 l 136 838 l 136 965 l 144 974 m 46 697 l 325 697 l 333 689 l 333 183 l 424 183 l 432 175 l 432 8 l 424 0 l 46 0 l 38 8 l 38 175 l 46 183 l 136 183 l 136 514 l 46 514 l 38 522 l 38 689 l 46 697 z "},"j":{"ha":678,"x_min":0,"x_max":508,"o":"m 314 976 l 499 976 l 508 968 l 508 840 l 499 831 l 314 831 l 306 840 l 306 968 l 314 976 m 178 697 l 499 697 l 508 689 l 508 -65 l 314 -278 l 10 -278 l 0 -268 l 0 -114 l 10 -106 l 204 -106 l 306 8 l 306 513 l 178 513 l 169 522 l 169 689 l 178 697 z "},"k":{"ha":844,"x_min":1,"x_max":683,"o":"m 10 976 l 190 976 l 200 968 l 200 449 l 253 449 l 450 699 l 683 699 l 683 694 l 410 347 q 683 0 683 17 l 450 0 l 253 250 l 200 250 l 200 8 l 190 0 l 10 0 l 1 8 l 1 968 l 10 976 z "},"l":{"ha":631,"x_min":28,"x_max":451,"o":"m 36 976 l 331 976 l 339 968 l 339 183 l 443 183 l 451 175 l 451 8 l 443 0 l 36 0 l 28 8 l 28 175 l 36 183 l 140 183 l 140 792 l 36 792 l 28 801 l 28 968 l 36 976 z "},"m":{"ha":982,"x_min":0,"x_max":833,"o":"m 10 697 l 715 697 q 833 438 793 572 l 833 10 l 824 0 l 647 0 l 636 10 l 636 386 q 593 514 636 413 l 500 514 l 500 10 l 490 0 l 339 0 l 328 10 l 328 514 l 197 514 l 197 10 l 188 0 l 10 0 l 0 10 l 0 688 l 10 697 z "},"n":{"ha":831,"x_min":-7,"x_max":676,"o":"m 3 697 l 526 697 q 676 446 671 483 l 676 10 l 667 0 l 485 0 l 474 10 l 474 390 q 411 514 474 404 l 190 514 l 190 10 l 181 0 l 3 0 l -7 10 l -7 688 l 3 697 z "},"o":{"ha":832,"x_min":1,"x_max":699,"o":"m 193 697 l 507 697 q 699 404 699 429 l 699 293 q 507 0 699 268 l 193 0 q 1 293 1 268 l 1 404 q 193 697 1 429 m 274 511 l 188 354 l 188 343 l 274 186 l 421 186 q 513 343 513 332 l 513 354 q 421 511 513 365 l 274 511 z "},"p":{"ha":833,"x_min":0,"x_max":692,"o":"m 0 -269 l 0 686 l 8 694 l 504 694 q 692 406 672 463 l 692 288 q 504 -1 672 231 l 197 -1 l 197 -269 l 189 -278 l 8 -278 l 0 -269 m 403 182 l 494 344 q 403 511 494 356 l 197 511 l 197 182 l 403 182 z "},"q":{"ha":838,"x_min":0,"x_max":692,"o":"m 683 -278 l 503 -278 l 494 -269 l 494 -1 l 188 -1 q 0 288 19 231 l 0 406 q 188 694 19 463 l 683 694 l 692 686 l 692 -269 l 683 -278 m 494 182 l 494 511 l 289 511 q 197 344 197 356 l 289 182 l 494 182 z "},"r":{"ha":732,"x_min":28,"x_max":583,"o":"m 38 697 l 215 697 l 225 688 l 225 601 l 229 601 q 386 697 367 697 l 574 697 l 583 688 l 583 524 l 574 514 l 392 514 l 225 403 l 225 10 l 215 0 l 38 0 l 28 10 l 28 688 l 38 697 z "},"s":{"ha":814,"x_min":0,"x_max":667,"o":"m 140 694 l 611 694 l 621 685 l 621 535 l 611 525 l 232 525 l 186 488 l 186 483 l 232 432 l 511 432 l 667 276 l 667 146 l 521 0 l 10 0 l 0 10 l 0 160 l 10 169 l 431 169 l 481 206 l 481 242 l 444 263 l 140 263 l 0 418 l 0 553 l 140 694 z "},"t":{"ha":715,"x_min":6,"x_max":558,"o":"m 151 874 l 332 957 l 343 947 l 343 694 l 519 694 l 531 685 l 531 522 l 519 513 l 343 513 l 343 286 l 418 188 l 549 188 l 558 178 l 558 10 l 549 0 l 332 0 l 142 211 l 142 513 l 15 513 l 6 522 l 6 685 l 15 694 l 142 694 l 142 864 l 151 874 z "},"u":{"ha":800,"x_min":-3,"x_max":686,"o":"m 7 694 l 183 694 l 193 685 l 193 272 l 274 188 l 360 188 l 425 253 l 425 685 l 435 694 l 611 694 l 621 685 l 621 151 l 686 0 l 506 0 q 475 56 496 0 l 469 56 l 410 0 l 189 0 l -3 211 l -3 685 l 7 694 z "},"v":{"ha":815,"x_min":-6,"x_max":690,"o":"m 192 696 q 324 274 207 696 l 356 274 q 489 696 472 696 l 681 696 l 685 690 l 690 690 l 408 0 l 282 0 q 100 433 264 7 l -6 690 l 0 696 l 192 696 z "},"w":{"ha":956,"x_min":1,"x_max":806,"o":"m 11 696 l 174 696 l 185 686 l 185 238 l 203 238 q 340 560 319 547 l 467 560 q 604 238 488 547 l 622 238 l 622 686 l 633 696 l 796 696 l 806 686 l 806 222 q 664 0 806 199 l 528 0 q 406 297 501 21 l 401 297 q 274 0 299 14 l 143 0 q 1 222 1 199 l 1 686 l 11 696 z "},"x":{"ha":833,"x_min":0,"x_max":689,"o":"m 0 694 l 228 694 q 344 497 344 513 l 350 497 q 461 694 426 650 l 689 694 l 689 685 l 465 350 l 689 6 l 689 -4 l 461 -4 q 350 193 426 40 l 344 193 q 228 -4 344 178 l 0 -4 l 0 6 l 228 344 l 0 685 l 0 694 z "},"y":{"ha":842,"x_min":6,"x_max":704,"o":"m 208 694 q 299 415 225 694 q 350 249 313 394 l 356 249 q 501 694 461 599 l 694 694 l 699 689 l 704 689 l 356 -272 l 350 -278 l 71 -278 l 61 -267 l 61 -119 l 71 -110 l 213 -110 q 258 1 224 -110 l 6 689 l 11 694 l 208 694 z "},"z":{"ha":778,"x_min":3,"x_max":631,"o":"m 13 694 l 621 694 l 631 685 l 631 558 l 308 185 l 621 185 l 631 174 l 631 6 l 621 -4 l 13 -4 l 3 6 l 3 138 l 331 511 l 13 511 l 3 521 l 3 685 l 13 694 z "},"{":{"ha":668,"x_min":0,"x_max":519,"o":"m 381 1250 l 513 1250 l 519 1243 l 519 1114 l 513 1107 l 439 1107 l 311 982 l 311 601 l 194 482 l 311 365 l 311 -11 l 439 -135 l 513 -135 l 519 -143 l 519 -271 l 513 -279 l 381 -279 l 167 -69 l 167 311 l 0 482 l 0 486 l 167 660 l 167 1036 l 381 1250 z "},"|":{"ha":485,"x_min":140,"x_max":281,"o":"m 281 1178 l 281 -200 l 140 -200 l 140 1178 l 281 1178 z "},"}":{"ha":692,"x_min":0,"x_max":519,"o":"m 353 1036 l 353 660 l 519 486 l 519 482 l 353 311 l 353 -69 l 140 -279 l 8 -279 l 0 -271 l 0 -143 l 8 -135 l 82 -135 l 210 -11 l 210 365 l 326 482 l 210 601 l 210 982 l 82 1107 l 8 1107 l 0 1114 l 0 1243 l 8 1250 l 140 1250 l 353 1036 z "},"~":{"ha":833,"x_min":-3,"x_max":831,"o":"m 208 681 l 617 444 l 828 564 l 831 560 l 831 411 q 617 286 831 396 l 204 518 l 1 403 l -3 407 l -3 556 q 208 681 -3 568 z "},"°":{"ha":836,"x_min":142,"x_max":557,"o":"m 265 972 l 429 972 l 557 849 l 557 681 l 429 557 l 265 557 l 142 681 l 142 849 l 265 972 m 246 804 l 246 725 l 306 665 l 389 665 l 449 725 l 449 804 l 389 864 l 306 864 l 246 804 z "},"–":{"ha":969,"x_min":6,"x_max":904,"o":"m 6 419 l 6 553 l 904 553 l 904 419 l 6 419 z "},"•":{"ha":701,"x_min":138,"x_max":417,"o":"m 138 279 l 138 553 l 417 553 l 417 279 l 138 279 z "},"#":{"ha":1096,"x_min":14,"x_max":903,"o":"m 525 976 l 528 972 l 532 972 l 469 771 l 603 771 q 657 953 611 771 l 665 972 l 668 976 l 801 976 l 804 972 l 808 972 l 750 771 l 896 771 l 899 767 l 903 767 q 857 626 867 626 l 715 626 q 629 350 707 622 l 779 350 l 782 346 l 786 346 q 736 210 746 210 l 594 210 q 544 39 586 210 q 525 0 533 0 l 396 0 l 392 4 l 389 4 l 447 210 l 314 210 q 264 39 306 210 q 244 0 253 0 l 117 0 l 113 4 l 108 4 l 171 210 l 22 210 l 18 214 l 14 214 q 61 350 50 350 l 206 350 q 288 626 214 356 l 142 626 l 139 631 l 135 631 q 181 771 171 771 l 322 771 q 389 972 333 785 l 392 976 l 525 976 m 325 350 l 454 350 q 540 626 461 356 l 407 626 q 325 350 400 624 z "},"!":{"ha":625,"x_min":135,"x_max":346,"o":"m 339 979 l 342 975 l 346 975 q 310 275 318 315 l 175 275 q 151 669 161 275 l 135 975 l 139 979 l 339 979 m 175 142 l 306 142 l 314 133 l 314 7 l 306 -1 l 175 -1 l 167 7 l 167 133 l 175 142 z "},"\"":{"ha":715,"x_min":0,"x_max":540,"o":"m 99 786 l 11 786 l 0 797 l 0 964 l 11 975 l 190 975 l 203 964 l 203 797 l 143 590 l 43 590 l 99 786 m 436 788 l 349 788 l 338 799 l 338 965 l 349 976 l 528 976 l 540 965 l 540 799 l 481 592 l 381 592 l 436 788 z "},"±":{"ha":968,"x_min":140,"x_max":694,"o":"m 143 74 l 143 214 l 694 214 l 694 74 l 143 74 m 344 557 l 140 557 l 140 697 l 344 697 l 344 904 l 483 904 l 483 697 l 692 697 l 692 557 l 483 557 l 483 350 l 344 350 l 344 557 z "},"%":{"ha":835,"x_min":0,"x_max":696,"o":"m 85 969 l 197 969 l 282 885 l 282 772 l 197 688 l 85 688 l 0 772 l 0 885 l 85 969 m 539 969 l 692 969 q 157 0 692 951 l 4 0 q 539 969 4 18 m 499 278 l 611 278 l 696 193 l 696 85 l 611 0 l 499 0 l 414 85 l 414 193 l 499 278 z "},"Ø":{"ha":0,"x_min":56,"x_max":879,"o":"m 760 975 l 879 975 l 879 965 q 739 758 739 776 q 854 468 854 660 q 764 242 854 363 q 463 100 635 100 q 282 146 397 100 l 282 140 l 176 0 l 56 0 l 56 10 q 196 221 196 200 q 81 513 81 307 q 247 810 81 671 q 443 875 351 875 l 472 875 q 654 835 561 875 q 760 975 654 849 m 192 513 l 192 478 q 267 301 192 372 l 583 744 q 472 769 507 769 q 217 613 313 769 q 192 513 192 553 m 668 679 l 357 242 l 357 231 l 457 211 q 654 282 575 211 q 744 468 744 372 l 744 507 q 674 679 744 585 l 668 679 z "},"´":{"ha":0,"x_min":0,"x_max":203,"o":"m 99 786 l 11 786 l 0 797 l 0 964 l 11 975 l 190 975 l 203 964 l 203 797 l 143 590 l 43 590 l 99 786 z "}}}
